<mxfile host="65bd71144e">
    <diagram id="YRX_8cETxtdHaOABHZLi" name="Page-1">
        <mxGraphModel dx="1388" dy="387" grid="1" gridSize="10" guides="1" tooltips="1" connect="1" arrows="1" fold="1" page="1" pageScale="1" pageWidth="850" pageHeight="1100" math="0" shadow="0">
            <root>
                <mxCell id="0"/>
                <mxCell id="1" parent="0"/>
                <mxCell id="2" value="" style="rounded=0;whiteSpace=wrap;html=1;fillColor=#1ba1e2;fontColor=#ffffff;strokeColor=#006EAF;" parent="1" vertex="1">
                    <mxGeometry x="50" y="60" width="630" height="670" as="geometry"/>
                </mxCell>
                <mxCell id="5" value="&lt;h1&gt;Best Fit&lt;/h1&gt;" style="text;html=1;strokeColor=none;fillColor=none;spacing=5;spacingTop=-20;whiteSpace=wrap;overflow=hidden;rounded=0;align=center;verticalAlign=middle;" parent="1" vertex="1">
                    <mxGeometry x="270" y="80" width="190" height="60" as="geometry"/>
                </mxCell>
                <mxCell id="6" value="MEMORY (20KB)" style="rounded=0;whiteSpace=wrap;html=1;" parent="1" vertex="1">
                    <mxGeometry x="70" y="200" width="270" height="60" as="geometry"/>
                </mxCell>
                <mxCell id="7" value="TASK LIST (UNDEFINED LENGTH)" style="rounded=0;whiteSpace=wrap;html=1;fillColor=#d80073;fontColor=#ffffff;strokeColor=#A50040;" parent="1" vertex="1">
                    <mxGeometry x="420" y="200" width="160" height="60" as="geometry"/>
                </mxCell>
                <mxCell id="8" value="&lt;h1 style=&quot;&quot;&gt;&lt;span style=&quot;font-size: 12px; font-weight: 400;&quot;&gt;DURATION (Elements in task list)&lt;/span&gt;&lt;/h1&gt;" style="text;html=1;strokeColor=none;fillColor=none;spacing=5;spacingTop=-20;whiteSpace=wrap;overflow=hidden;rounded=0;" parent="1" vertex="1">
                    <mxGeometry x="250" y="150" width="190" height="45" as="geometry"/>
                </mxCell>
                <mxCell id="9" value="nextMemoryAddress = searchForAvailableSpace()" style="text;html=1;strokeColor=none;fillColor=none;align=center;verticalAlign=middle;whiteSpace=wrap;rounded=0;" parent="1" vertex="1">
                    <mxGeometry x="270" y="320" width="180" height="60" as="geometry"/>
                </mxCell>
                <mxCell id="10" value="" style="rounded=0;whiteSpace=wrap;html=1;" parent="1" vertex="1">
                    <mxGeometry x="70" y="560" width="270" height="60" as="geometry"/>
                </mxCell>
                <mxCell id="11" value="nextMemoryAddress?continue:freeMemorySpace(jobsList, queue_type) (FIFO) --&amp;gt; Also, if no jobs are running" style="text;html=1;strokeColor=none;fillColor=none;align=center;verticalAlign=middle;whiteSpace=wrap;rounded=0;" parent="1" vertex="1">
                    <mxGeometry x="270" y="380" width="180" height="60" as="geometry"/>
                </mxCell>
                <mxCell id="12" value="checkJobsStatus(memoryList) --&amp;gt; See if the task time went by,&lt;br&gt;Start task, or endTask" style="text;html=1;strokeColor=none;fillColor=none;align=center;verticalAlign=middle;whiteSpace=wrap;rounded=0;" parent="1" vertex="1">
                    <mxGeometry x="260" y="270" width="180" height="60" as="geometry"/>
                </mxCell>
                <mxCell id="14" value="deallocateJobFromMemory()" style="text;html=1;strokeColor=none;fillColor=none;align=center;verticalAlign=middle;whiteSpace=wrap;rounded=0;" parent="1" vertex="1">
                    <mxGeometry x="270" y="430" width="180" height="60" as="geometry"/>
                </mxCell>
                <mxCell id="15" value="checkFragmentation() --&amp;gt; Wion't afect the list, just for logging" style="text;html=1;strokeColor=none;fillColor=none;align=center;verticalAlign=middle;whiteSpace=wrap;rounded=0;" parent="1" vertex="1">
                    <mxGeometry x="270" y="460" width="180" height="60" as="geometry"/>
                </mxCell>
                <mxCell id="17" value="allocateJobInMemory()" style="text;html=1;strokeColor=none;fillColor=none;align=center;verticalAlign=middle;whiteSpace=wrap;rounded=0;" parent="1" vertex="1">
                    <mxGeometry x="270" y="500" width="180" height="60" as="geometry"/>
                </mxCell>
                <mxCell id="18" value="JOB" style="rounded=0;whiteSpace=wrap;html=1;fillColor=#d80073;fontColor=#ffffff;strokeColor=#A50040;" parent="1" vertex="1">
                    <mxGeometry x="80" y="560" width="70" height="60" as="geometry"/>
                </mxCell>
                <mxCell id="19" value="log_memory_management() --&amp;gt; print what jobs are in memory, what address they have" style="text;html=1;strokeColor=none;fillColor=none;align=center;verticalAlign=middle;whiteSpace=wrap;rounded=0;" parent="1" vertex="1">
                    <mxGeometry x="275" y="630" width="180" height="60" as="geometry"/>
                </mxCell>
                <mxCell id="20" value="LOG IN EVERY METHOD" style="text;html=1;strokeColor=none;fillColor=none;align=center;verticalAlign=middle;whiteSpace=wrap;rounded=0;fontColor=#CC0000;fontStyle=1" parent="1" vertex="1">
                    <mxGeometry x="510" y="400" width="60" height="30" as="geometry"/>
                </mxCell>
                <mxCell id="21" value="Keep a locations table" style="text;html=1;strokeColor=none;fillColor=none;align=center;verticalAlign=middle;whiteSpace=wrap;rounded=0;fontColor=#CC0000;fontStyle=1" parent="1" vertex="1">
                    <mxGeometry x="510" y="330" width="60" height="30" as="geometry"/>
                </mxCell>
            </root>
        </mxGraphModel>
    </diagram>
</mxfile>